<?xml version="1.0" standalone="no"?>
<!DOCTYPE svg PUBLIC "-//W3C//DTD SVG 20010904//EN"
 "http://www.w3.org/TR/2001/REC-SVG-20010904/DTD/svg10.dtd">
<svg version="1.0" xmlns="http://www.w3.org/2000/svg"
 width="340.000000pt" height="340.000000pt" viewBox="0 0 340.000000 340.000000"
 preserveAspectRatio="xMidYMid meet">
<metadata>
Created by potrace 1.14, written by Peter Selinger 2001-2017
</metadata>
<g transform="translate(0.000000,340.000000) scale(0.100000,-0.100000)"
fill="#000000" stroke="none">
<path d="M1130 3315 c-47 -13 -119 -31 -160 -40 -147 -33 -288 -106 -392 -203
-48 -44 -148 -175 -148 -194 0 -4 -16 -30 -35 -56 -111 -156 -162 -387 -137
-628 17 -157 54 -330 103 -471 22 -64 45 -125 50 -135 12 -22 5 -23 -26 -2
-25 16 -25 16 -25 -15 0 -24 7 -36 31 -50 19 -12 41 -41 60 -82 33 -68 109
-270 109 -287 0 -20 -30 -20 -57 0 l-28 22 24 -27 c20 -22 31 -26 55 -22 31 6
31 5 82 -102 95 -198 233 -315 484 -408 68 -26 87 -28 210 -29 209 0 339 38
508 151 170 113 278 238 352 408 19 43 51 111 70 149 35 71 35 71 80 74 25 2
49 7 53 11 4 4 -5 6 -21 3 -19 -2 -35 2 -46 14 -16 16 -17 30 -11 131 6 101 5
112 -9 107 -13 -5 -16 2 -16 40 0 25 4 46 9 46 12 0 17 17 36 124 8 50 21 94
30 100 9 7 18 47 25 121 13 122 0 379 -26 514 -23 128 -132 325 -217 396 -23
19 -78 58 -122 86 l-80 51 -97 -7 -97 -7 -25 50 c-28 56 -85 108 -127 117 -16
4 -46 15 -68 26 -113 54 -261 63 -401 24z m821 -856 c16 -33 42 -71 58 -85 16
-14 35 -40 42 -57 7 -18 39 -87 71 -155 67 -139 62 -117 83 -322 9 -85 23
-169 31 -186 13 -27 13 -38 -1 -90 -8 -32 -21 -72 -29 -89 -7 -16 -23 -70 -35
-120 -42 -179 -162 -376 -322 -530 -162 -155 -283 -201 -509 -192 -155 5 -216
26 -359 121 -122 81 -208 159 -267 242 -48 68 -120 213 -131 264 l-6 32 44
-23 c37 -20 59 -23 144 -24 86 0 107 3 150 25 111 55 188 170 205 308 11 81
28 110 84 139 38 20 119 12 154 -14 16 -12 38 -49 56 -94 82 -201 314 -291
505 -195 69 35 154 130 176 195 31 95 17 231 -33 310 -19 31 -79 93 -107 110
-14 8 -16 14 -7 17 45 20 -32 119 -126 161 -51 24 -59 25 -116 15 -76 -14
-189 -70 -238 -117 -66 -63 -44 -77 72 -46 101 26 106 26 47 -5 -26 -14 -66
-43 -88 -65 -45 -45 -97 -146 -105 -205 -9 -65 -11 -67 -38 -48 -14 8 -30 13
-36 9 -5 -3 -10 -1 -10 4 0 17 -87 13 -123 -5 -18 -9 -41 -25 -53 -35 -20 -19
-21 -19 -43 31 -28 61 -115 155 -137 146 -8 -3 -12 -2 -9 3 8 15 -34 39 -61
36 -14 -1 -22 0 -18 4 3 3 -16 11 -43 18 l-48 11 75 2 c41 1 82 2 91 1 9 -1
28 3 42 8 39 15 25 37 -45 72 -56 28 -68 49 -28 49 10 0 21 4 24 8 3 5 35 23
71 41 35 18 77 43 93 56 19 16 46 25 87 30 53 5 58 4 43 -8 -24 -19 -23 -47 1
-47 25 0 117 38 166 69 50 32 200 154 243 199 17 19 32 29 32 23 0 -15 43 -14
59 2 11 10 12 5 7 -25 -4 -23 -2 -39 4 -43 18 -11 94 76 108 123 l13 43 30
-22 c16 -11 43 -47 60 -80z m-1092 -316 c-21 -64 -20 -63 -62 -63 -22 0 -38 2
-36 4 2 3 20 23 38 45 41 49 74 56 60 14z m959 -49 c-4 -3 -32 -5 -63 -5 -31
0 -59 2 -63 5 -3 3 25 6 63 6 38 0 66 -3 63 -6z m-144 -13 c4 -5 -3 -7 -14 -4
-23 6 -26 13 -6 13 8 0 17 -4 20 -9z m186 -37 c119 -38 209 -157 218 -289 6
-102 -17 -171 -81 -241 -28 -31 -70 -63 -98 -76 -27 -13 -49 -26 -49 -29 0 -3
-11 -4 -25 -1 -14 2 -25 0 -25 -6 0 -6 -20 -10 -45 -10 -25 1 -45 5 -45 11 0
5 -11 7 -25 5 -14 -3 -25 -1 -25 4 0 5 -6 8 -12 6 -7 -3 -17 -1 -23 4 -5 4
-32 23 -60 41 -94 61 -152 185 -142 301 13 147 128 271 276 296 53 9 97 4 161
-16z m-954 -157 c67 -34 137 -113 164 -185 50 -134 -7 -306 -127 -382 -80 -51
-118 -56 -295 -37 -9 1 -14 6 -11 11 4 5 -1 7 -11 3 -10 -4 -15 -3 -11 3 5 9
-8 14 -19 8 -2 -2 -12 6 -22 17 -11 12 -14 14 -9 5 9 -13 8 -13 -8 -1 -9 8
-15 16 -13 19 3 3 -8 21 -24 41 -16 21 -32 49 -35 64 -4 15 -11 30 -16 33 -5
3 -7 10 -3 15 4 6 11 6 19 -1 14 -12 31 3 21 18 -3 5 2 27 10 50 9 29 12 60 8
98 -6 48 -10 55 -25 51 -11 -3 -19 0 -19 7 0 19 70 117 88 123 9 3 27 15 39
25 61 55 207 62 299 15z m-363 10 c4 3 7 0 7 -8 0 -8 -12 -22 -25 -32 -24 -17
-25 -17 -25 2 0 34 11 53 25 41 6 -5 15 -7 18 -3z"/>
<path d="M1156 1318 c-10 -46 16 -107 54 -125 34 -17 130 -16 171 1 46 19 69
46 76 90 6 41 -8 48 -25 11 -16 -35 -81 -65 -141 -65 -83 0 -113 24 -124 100
-3 21 -4 20 -11 -12z"/>
<path d="M1779 1236 c16 -19 44 -21 39 -3 -3 6 -15 14 -28 15 -21 3 -22 2 -11
-12z"/>
<path d="M1710 1189 c-164 -59 -394 -102 -617 -115 -72 -5 -113 -11 -113 -18
0 -17 64 -64 123 -91 75 -35 149 -48 236 -41 106 8 111 9 111 19 0 5 8 6 18 2
25 -7 164 63 221 111 53 46 101 110 101 136 0 22 -10 22 -80 -3z m-77 -108 c7
-7 1 -14 -19 -21 -95 -37 -406 -81 -439 -63 -15 9 -14 11 7 25 13 8 48 18 78
22 96 11 124 16 185 31 102 24 167 27 188 6z"/>
<path d="M1135 880 c9 -14 113 -50 143 -49 19 0 11 5 -25 14 -29 8 -68 21 -88
29 -20 9 -33 11 -30 6z"/>
<path d="M1664 1900 c-75 -23 -174 -146 -174 -216 1 -26 3 -24 32 29 33 61 48
71 48 32 0 -32 29 -93 48 -100 18 -7 234 62 245 78 10 16 -1 76 -20 105 -29
46 8 40 87 -14 37 -26 50 -30 50 -19 0 19 -52 70 -95 92 -35 19 -175 27 -221
13z m11 -100 c0 -18 -6 -26 -23 -28 -24 -4 -38 18 -28 44 3 9 15 14 28 12 17
-2 23 -10 23 -28z"/>
<path d="M752 1764 c-38 -14 -92 -59 -129 -107 -11 -14 -10 -53 1 -64 2 -2 14
12 26 32 20 33 78 85 94 85 4 0 2 -9 -4 -19 -14 -27 -13 -94 3 -113 17 -23
188 -31 217 -11 19 13 25 10 21 -10 -1 -5 4 -7 11 -5 7 3 18 31 23 62 l10 58
28 -22 c43 -34 32 -2 -14 41 -85 78 -195 106 -287 73z m86 -88 c-2 -15 -10
-21 -28 -21 -31 0 -40 33 -14 52 22 16 46 -1 42 -31z"/>
<path d="M2382 1836 c-16 -19 -34 -49 -40 -68 -16 -52 -22 -108 -11 -108 5 0
9 9 9 20 0 34 28 90 65 132 32 35 38 58 15 58 -4 0 -21 -15 -38 -34z"/>
<path d="M2967 1333 c-21 -46 -38 -101 -42 -133 l-5 -55 14 60 c8 33 28 91 46
129 17 37 29 70 27 72 -2 2 -20 -31 -40 -73z"/>
<path d="M2660 1303 c-7 -34 -9 -84 -5 -127 4 -42 2 -82 -4 -99 -13 -33 -7
-35 11 -4 9 15 13 65 13 154 0 73 -1 133 -2 133 -1 0 -7 -25 -13 -57z"/>
<path d="M2110 904 c0 -21 25 -66 48 -85 20 -17 71 -36 116 -45 14 -2 37 -9
51 -14 67 -25 68 7 2 35 -119 51 -169 76 -192 99 -18 18 -25 21 -25 10z"/>
<path d="M2067 675 c6 -46 58 -92 143 -125 42 -16 90 -31 106 -34 16 -3 30
-10 32 -16 5 -14 39 -13 48 2 13 20 -45 55 -155 92 -121 42 -167 66 -174 93
-2 10 -3 5 0 -12z"/>
<path d="M2070 455 c0 -19 47 -73 71 -80 10 -4 17 -10 14 -15 -5 -8 38 -26 83
-35 51 -10 131 -39 126 -47 -3 -4 15 -8 40 -8 25 0 46 5 46 10 0 6 -4 10 -9
10 -4 0 -23 10 -42 23 -19 12 -62 30 -95 40 -107 29 -178 59 -206 88 -17 16
-28 22 -28 14z"/>
<path d="M3120 418 c-36 -76 -111 -153 -183 -187 -149 -71 -417 -130 -510
-112 -119 23 -274 90 -296 129 -9 14 -10 14 -11 1 -1 -44 97 -99 239 -136 83
-21 109 -23 190 -18 299 22 489 121 572 300 17 36 30 68 27 70 -2 2 -15 -19
-28 -47z"/>
</g>
</svg>
