<?xml version="1.0" standalone="no"?>
<!DOCTYPE svg PUBLIC "-//W3C//DTD SVG 20010904//EN"
 "http://www.w3.org/TR/2001/REC-SVG-20010904/DTD/svg10.dtd">
<svg version="1.0" xmlns="http://www.w3.org/2000/svg"
 width="800.000000pt" height="800.000000pt" viewBox="0 0 800.000000 800.000000"
 preserveAspectRatio="xMidYMid meet">
<metadata>
Created by potrace 1.14, written by Peter Selinger 2001-2017
</metadata>
<g transform="translate(0.000000,800.000000) scale(0.100000,-0.100000)"
fill="#000000" stroke="none">
<path d="M4189 7613 c-11 -26 -36 -87 -55 -134 l-35 -86 -167 -6 c-176 -6
-241 -17 -393 -66 -51 -17 -94 -29 -94 -28 -9 21 -149 249 -162 266 l-19 23
-117 -30 c-65 -16 -121 -33 -125 -37 -8 -8 -20 -165 -21 -293 -1 -79 -4 -94
-18 -98 -88 -30 -321 -128 -416 -175 l-117 -59 -48 43 c-26 24 -92 80 -146
125 l-99 82 -36 -21 c-20 -11 -67 -42 -106 -68 -85 -59 -85 -53 -21 -267 26
-83 46 -154 46 -157 0 -2 -39 -38 -87 -78 -49 -40 -147 -130 -219 -201 l-131
-129 -49 22 c-27 12 -107 43 -179 70 l-130 49 -28 -32 c-63 -72 -127 -162
-127 -177 0 -9 46 -79 101 -156 55 -77 103 -145 105 -151 3 -7 -30 -70 -72
-140 -43 -71 -106 -189 -141 -261 l-64 -133 -87 5 c-276 15 -290 15 -299 2
-11 -13 -83 -217 -83 -234 0 -7 225 -175 308 -229 2 -1 -8 -53 -21 -116 -27
-120 -52 -274 -64 -398 l-8 -75 -60 -18 c-33 -10 -118 -36 -188 -58 l-128 -40
3 -131 c3 -131 3 -132 28 -139 442 -134 441 -133 103 -137 l-243 -2 0 -535 0
-535 382 -2 381 -3 64 -125 c36 -69 94 -173 130 -232 l65 -107 -75 -103 c-41
-57 -91 -129 -112 -160 l-37 -57 78 -101 c43 -55 82 -100 86 -100 7 0 165 59
315 118 l43 16 122 -120 c68 -66 153 -146 191 -178 l67 -58 0 -54 c0 -48 2
-54 21 -54 16 0 19 -4 14 -17 -21 -56 -83 -288 -78 -296 12 -20 205 -138 218
-134 7 3 68 52 135 109 174 146 152 138 240 90 81 -44 323 -149 408 -176 28
-10 52 -23 52 -29 2 -108 22 -373 28 -379 16 -16 237 -66 249 -56 7 6 54 80
105 164 56 93 98 154 108 154 8 0 65 -7 125 -15 61 -8 187 -18 281 -22 l171
-6 63 -161 c34 -89 68 -170 75 -181 12 -20 18 -20 136 -12 68 5 127 13 130 19
6 10 37 143 67 287 l17 85 130 27 c157 32 230 51 354 91 l94 30 26 -34 c42
-53 198 -233 215 -247 14 -11 27 -9 89 17 169 70 157 62 157 112 0 39 -16 173
-36 306 l-6 40 93 53 c52 29 137 82 189 117 84 56 102 64 143 64 47 0 47 0 47
34 0 66 17 64 157 -20 70 -42 147 -86 170 -97 l42 -20 90 82 c50 46 91 89 91
97 0 7 -36 88 -80 180 l-80 167 38 44 c105 125 210 257 264 336 50 73 64 88
82 84 176 -38 346 -69 357 -65 8 3 40 55 72 115 l56 110 -129 129 c-71 71
-129 132 -130 137 0 4 151 7 335 7 l335 0 0 535 0 535 -201 2 -200 3 -1 284
-1 284 171 84 c95 46 172 87 172 91 0 20 -41 246 -45 251 -6 5 -210 35 -312
46 l-73 7 -10 42 c-22 87 -94 306 -136 411 l-44 109 135 136 c74 75 135 140
135 145 0 17 -115 218 -128 222 -7 3 -83 -9 -170 -27 -86 -18 -168 -35 -182
-37 -22 -4 -32 5 -75 69 -64 93 -181 244 -258 331 l-59 67 17 27 c10 15 49 92
86 172 l69 145 -28 29 c-15 16 -58 56 -95 90 l-69 61 -61 -34 c-34 -18 -109
-62 -166 -97 -57 -35 -106 -63 -108 -63 -3 0 -37 24 -77 54 -93 70 -237 164
-342 223 -46 27 -82 53 -80 60 12 30 47 366 39 374 -12 12 -211 99 -227 99 -7
0 -69 -65 -137 -145 -68 -80 -128 -143 -135 -141 -43 17 -194 61 -293 86 -103
26 -253 80 -273 99 -4 3 -21 74 -39 156 -17 83 -35 157 -40 167 -7 12 -29 18
-86 23 -43 3 -99 8 -125 11 l-48 6 -21 -49z m1209 -893 c794 -404 1364 -1121
1576 -1982 54 -218 77 -392 83 -639 3 -118 2 -246 -1 -282 l-8 -67 -61 0 -62
0 8 113 c17 242 -15 581 -79 842 -168 684 -579 1283 -1159 1692 -55 39 -136
91 -181 117 -66 38 -89 58 -124 109 -24 34 -61 83 -83 110 -21 26 -36 47 -32
47 4 0 59 -27 123 -60z m-2722 -37 c-24 -32 -60 -84 -80 -115 -20 -32 -40 -58
-45 -58 -4 0 -59 -34 -122 -76 -639 -426 -1089 -1094 -1238 -1839 -43 -214
-55 -341 -55 -597 l0 -248 -57 0 c-55 0 -57 1 -63 31 -10 50 -7 407 4 520 101
1020 689 1903 1593 2389 50 27 95 50 99 50 4 0 -12 -26 -36 -57z m2932 -362
c108 -73 242 -181 338 -274 95 -90 245 -252 283 -306 l19 -26 -70 34 c-67 34
-75 35 -221 42 -84 4 -166 8 -184 8 -29 1 -33 5 -43 44 -35 139 -121 382 -171
478 -10 21 -17 39 -14 39 4 0 32 -17 63 -39z m-3183 -74 c-38 -86 -94 -251
-120 -352 l-23 -90 -58 -6 c-33 -4 -107 -7 -165 -8 -59 -1 -127 -7 -152 -15
l-47 -14 22 31 c45 66 347 356 452 435 60 45 111 81 113 79 2 -2 -8 -29 -22
-60z m2331 -229 c48 -95 125 -197 210 -277 66 -63 104 -89 186 -129 57 -28
144 -63 193 -77 50 -15 96 -29 103 -31 15 -4 16 -162 2 -379 -12 -187 -30
-281 -81 -437 -129 -390 -380 -702 -713 -887 l-93 -51 -558 0 -558 0 -81 46
c-337 193 -581 497 -711 887 -59 178 -74 262 -86 497 -6 118 -9 239 -7 269 l3
54 88 23 c176 47 313 127 442 259 66 67 170 215 187 266 2 6 37 -6 78 -25 96
-44 222 -83 311 -97 44 -7 182 -9 372 -6 291 4 305 5 397 31 52 15 138 46 190
70 52 24 96 44 97 45 2 1 15 -23 29 -51z m-2526 -1029 l0 -491 -117 4 c-132 4
-166 16 -205 70 -23 33 -23 33 -26 417 l-3 384 28 29 c55 58 108 75 241 77
l82 1 0 -491z m3761 481 c67 -13 98 -34 125 -88 19 -36 22 -65 28 -249 4 -114
3 -282 -2 -372 -11 -185 -17 -200 -92 -238 -38 -20 -60 -23 -152 -23 l-108 0
0 490 0 490 74 0 c40 0 98 -5 127 -10z m513 -152 c152 -283 257 -620 301 -973
16 -122 22 -519 9 -569 l-6 -26 -820 0 -821 0 24 29 c13 16 61 73 106 126 45
53 107 135 138 181 l56 84 117 0 c221 1 495 18 540 34 101 36 214 143 269 253
29 60 38 90 44 161 9 105 10 549 0 685 -3 53 -5 97 -4 97 1 0 22 -37 47 -82z
m-4926 -798 c53 -164 197 -298 357 -330 28 -6 172 -13 322 -17 l272 -6 55 -83
c52 -77 212 -272 249 -303 9 -7 17 -17 17 -22 0 -5 -345 -9 -794 -9 l-795 0
-7 22 c-14 44 -7 450 11 583 38 297 109 549 233 824 l47 106 6 -350 c6 -318 8
-356 27 -415z m1394 -944 c96 -21 172 -62 228 -123 66 -72 84 -128 78 -247 -5
-107 -32 -171 -103 -241 -95 -95 -225 -134 -447 -135 l-128 0 0 -225 0 -225
-85 0 -85 0 0 605 0 605 238 0 c166 0 257 -5 304 -14z m1083 -1 c225 -48 344
-207 306 -411 -20 -113 -74 -192 -172 -254 -86 -56 -155 -72 -336 -78 l-163
-5 0 -223 0 -224 -90 0 -90 0 0 605 0 605 238 0 c170 0 257 -4 307 -15z m1194
-14 c158 -40 275 -120 354 -239 59 -88 88 -175 94 -287 12 -192 -43 -343 -171
-470 -80 -80 -158 -123 -283 -157 -68 -18 -112 -22 -360 -26 l-283 -4 0 607 0
607 283 -5 c247 -4 292 -7 366 -26z m-3741 -973 c95 -173 230 -359 389 -535
l83 -92 0 -81 0 -81 -34 26 c-44 33 -228 238 -308 342 -80 103 -193 275 -257
391 -28 50 -51 94 -51 97 0 3 31 5 69 5 l69 0 40 -72z m597 -30 c-65 -125 -92
-212 -108 -341 l-12 -98 -25 29 c-90 107 -155 188 -207 262 -58 83 -153 234
-153 245 0 3 126 5 279 5 l279 0 -53 -102z m4365 96 c0 -9 -120 -196 -178
-278 -94 -130 -244 -300 -252 -285 -4 8 -10 52 -13 99 -8 111 -46 241 -108
364 -27 54 -49 100 -49 102 0 2 135 4 300 4 165 0 300 -3 300 -6z m220 -91
c-138 -258 -360 -545 -582 -752 l-68 -63 0 82 0 82 100 106 c162 174 323 392
424 575 l38 67 70 0 70 0 -52 -97z m-1609 -402 c18 -22 19 -44 19 -375 l0
-352 -97 -36 c-199 -74 -416 -126 -634 -153 -68 -8 -127 -15 -131 -15 -4 0 -8
72 -8 160 l0 160 -215 0 -215 0 0 -155 0 -155 -35 0 c-42 0 -210 25 -314 46
-115 24 -297 78 -420 126 l-111 43 0 335 c0 383 0 381 70 391 25 4 501 6 1058
5 l1014 -1 19 -24z m379 -815 c0 -2 -7 -6 -15 -10 -8 -3 -15 -1 -15 4 0 6 7
10 15 10 8 0 15 -2 15 -4z m-2375 -71 c596 -210 1247 -215 1859 -14 82 27 151
49 153 49 2 0 3 -24 3 -54 0 -49 2 -55 23 -58 31 -5 -261 -100 -408 -133 -213
-48 -367 -66 -596 -72 -397 -10 -745 43 -1099 169 l-95 34 -3 68 c-3 62 -1 68
15 63 10 -4 77 -27 148 -52z"/>
<path d="M2600 3210 l0 -242 148 4 c207 7 280 39 328 142 41 89 29 195 -31
258 -57 60 -101 72 -282 76 l-163 4 0 -242z"/>
<path d="M3690 3211 l0 -241 108 0 c221 0 320 42 368 155 23 55 21 152 -4 201
-25 50 -46 68 -107 96 -43 19 -71 23 -207 26 l-158 4 0 -241z"/>
<path d="M4770 2985 l0 -468 178 6 c190 6 253 17 349 64 161 79 245 268 214
479 -22 149 -92 254 -208 313 -108 54 -154 63 -350 68 l-183 5 0 -467z"/>
</g>
</svg>
