<?xml version="1.0" encoding="UTF-8" standalone="no"?>
<svg
   width="1080"
   viewBox="0 0 810 810"
   height="1080"
   preserveAspectRatio="xMidYMid"
   version="1.0"
   xmlns="http://www.w3.org/2000/svg">
   <path
      d="m 714.10547,510.56641 c -11.61719,33.89843 -28.95703,65.82421 -51,94.10546 -22.03125,28.29297 -48.75391,52.92188 -78.75391,72.55469 -29.96875,19.65625 -63.21484,34.26172 -97.94531,43.02344 -34.72656,8.78906 -70.96094,11.70703 -106.71484,8.78516 -35.73438,-2.89454 -70.92579,-11.79297 -103.72266,-26.20704 -32.80859,-14.39843 -63.1875,-34.33203 -89.55469,-58.6289 -26.375,-24.29297 -48.71875,-52.95313 -65.80078,-84.46875 C 103.51953,528.22656 91.746094,493.875 85.894531,458.51172 c -5.839843,-35.35547 -5.839843,-71.76953 0,-107.1211 5.851563,-35.36328 17.624999,-69.71093 34.718749,-101.21875 17.08203,-31.51562 39.42578,-60.17578 65.80078,-84.46875 26.36719,-24.30468 56.7461,-44.23046 89.55469,-58.62499 32.79687,-14.417974 67.98828,-23.316411 103.72266,-26.214849 35.7539,-2.921875 71.98828,0 106.71484,8.789063 34.73047,8.757812 67.97656,23.367186 97.94531,43.031246 30,19.625 56.72266,44.25391 78.75391,72.54688 22.04297,28.27344 39.38281,60.20703 51,94.10937 11.65625,33.88672 17.53125,69.71485 17.52734,105.60938 0.004,35.89453 -5.87109,71.72656 -17.52734,105.61719 z m 79.20703,-55.8086 c -11.82813,-6.32422 -23.76563,-12.20312 -35.84375,-17.64062 0.96094,-10.69141 1.44141,-21.42969 1.45312,-32.16797 -0.0117,-10.54297 -0.47656,-21.10156 -1.39843,-31.61328 12.07422,-5.40625 24.03906,-11.27344 35.86328,-17.58594 1.02734,-0.12109 1.73437,-1.14844 1.57812,-2.28125 -1.10937,-8.46875 -2.49609,-16.90234 -4.17187,-25.28906 -0.21485,-1.125 -1.21485,-1.86328 -2.22656,-1.66407 -13.22266,-2.16796 -26.42579,-3.88281 -39.60157,-5.125 -2.54297,-10.43359 -5.5625,-20.75781 -9.05078,-30.92187 -3.42187,-9.99219 -7.29297,-19.81641 -11.62109,-29.44141 9.65234,-9.05859 19.07031,-18.51172 28.17187,-28.33593 0.91797,-0.45704 1.26563,-1.66407 0.7461,-2.67969 -3.82813,-7.64453 -7.88672,-15.17188 -12.19141,-22.54297 -0.58594,-0.98438 -1.77344,-1.36719 -2.66016,-0.84375 -13.20312,2.26953 -26.25,4.97266 -39.10546,8.10547 -5.80469,-9.03906 -12.02735,-17.81641 -18.61719,-26.28125 -6.49219,-8.32422 -13.33985,-16.36719 -20.55078,-24.07813 6.19922,-11.69922 12.01953,-23.67578 17.46875,-35.92578 0.72265,-0.72656 0.66015,-1.96093 -0.15235,-2.76953 -6.07812,-6 -12.36718,-11.77344 -18.82031,-17.36328 -0.86719,-0.75391 -2.11328,-0.71484 -2.78125,0.0664 -11.75,6.40234 -23.22266,13.17968 -34.38672,20.3125 -8.41406,-6.67969 -17.125,-12.97266 -26.10547,-18.85547 -8.82422,-5.78516 -17.91406,-11.175784 -27.23047,-16.128909 2.07032,-13.070312 3.71485,-26.324219 4.88282,-39.660156 0.45312,-0.917969 -0.0117,-2.085937 -1.04297,-2.578125 -7.71094,-3.6875 -15.52344,-7.148438 -23.46094,-10.324219 -1.0625,-0.425781 -2.23047,0 -2.60156,0.960938 -9.0625,9.890625 -17.69922,20.019531 -25.9375,30.386719 C 513.78125,68.914062 503.49219,65.8125 493.08984,63.183594 482.85547,60.59375 472.49609,58.46875 462.07812,56.828125 459.76953,43.78125 456.99219,30.742188 453.75391,17.753906 c 0.1289,-1.023437 -0.69922,-1.964844 -1.83594,-2.097656 -8.48047,-0.980469 -16.98828,-1.683594 -25.5,-2.105469 -1.14063,-0.0625 -2.10156,0.734375 -2.15235,1.769531 -5.32421,12.273438 -10.19531,24.683594 -14.62109,37.171876 -10.73047,-0.105469 -21.47266,0.292968 -32.17187,1.160156 -10.52344,0.859375 -20.9961,2.191406 -31.38672,4 -6.39063,-11.605469 -13.23047,-23.050782 -20.48828,-34.304688 -0.20704,-1.007812 -1.29688,-1.632812 -2.41407,-1.394531 -8.34375,1.824219 -16.64062,3.898437 -24.85937,6.257813 -1.09766,0.324218 -1.75391,1.382812 -1.46485,2.367187 -1.07031,13.363281 -1.68359,26.664063 -1.8125,39.917969 -10.1914,3.394531 -20.21484,7.265625 -30.05468,11.585937 -9.66016,4.238281 -19.12891,8.933594 -28.36719,14.027344 -9.82813,-8.878906 -20.01953,-17.464844 -30.55469,-25.730469 -0.52734,-0.886718 -1.7539,-1.125 -2.73437,-0.53125 -7.28516,4.449219 -14.44532,9.109375 -21.4336,14.011719 -0.93359,0.667969 -1.21484,1.871094 -0.60937,2.714844 3.34375,12.980469 7.10937,25.761721 11.28515,38.324221 -8.53125,6.53125 -16.7539,13.44922 -24.65234,20.72656 -7.75781,7.14844 -15.19922,14.64844 -22.29687,22.45703 -12.16016,-5.22266 -24.57422,-10.04297 -37.22657,-14.46484 -0.78125,-0.66407 -2.01562,-0.49219 -2.75,0.38672 -5.47656,6.55078 -10.710934,13.28906 -15.753902,20.18359 -0.671876,0.92187 -0.539063,2.16406 0.300781,2.76953 7.339843,11.19141 15.039061,22.07422 23.058591,32.625 -5.96093,8.92578 -11.51172,18.13672 -16.636716,27.57422 -5.023438,9.28516 -9.628906,18.78906 -13.804688,28.48828 -13.210937,-0.98828 -26.519531,-1.51562 -39.914062,-1.57812 -0.960938,-0.3711 -2.066406,0.1914 -2.480469,1.26171 -3.039063,7.98829 -5.835937,16.07032 -8.339844,24.25 -0.332031,1.09375 0.1875,2.21875 1.179688,2.51954 10.601562,8.19921 21.402343,15.97265 32.433593,23.33203 -2.722656,10.38281 -4.964843,20.90234 -6.726562,31.5039 -1.710938,10.41407 -2.964844,20.89844 -3.761719,31.42969 -12.800781,3.36719 -25.546875,7.21094 -38.246093,11.50391 -1.03125,-0.0508 -1.894532,0.84765 -1.925782,1.99218 -0.285156,8.52735 -0.292968,17.03907 -0.02344,25.56641 0.03516,1.14453 0.898437,2.03516 1.925781,2 12.699219,4.30469 25.425781,8.17188 38.230469,11.55859 0.785156,10.71485 2.050781,21.38672 3.800781,31.99219 1.730469,10.41016 3.925781,20.73828 6.578125,30.96094 -11.035156,7.34375 -21.84375,15.09375 -32.464844,23.27734 -0.988281,0.29688 -1.515625,1.42188 -1.179687,2.52344 2.484375,8.17578 5.269531,16.25781 8.292968,24.26172 0.40625,1.06641 1.527344,1.63281 2.488282,1.26172 13.386718,-0.043 26.710937,-0.55078 39.910156,-1.51172 4.234375,9.86719 8.910156,19.55469 14.027344,28.99609 5.035159,9.27735 10.488289,18.32422 16.324219,27.11719 -8.03906,10.53125 -15.742188,21.40234 -23.109375,32.58203 -0.835938,0.60547 -0.972657,1.83985 -0.296876,2.76172 5.023438,6.90625 10.257813,13.65234 15.714851,20.21484 0.73437,0.875 1.96875,1.05079 2.74609,0.39063 12.66797,-4.41016 25.07812,-9.20313 37.26172,-14.40234 7.20312,7.95703 14.76562,15.58984 22.66406,22.86718 7.76563,7.14844 15.83984,13.96094 24.20313,20.39063 -4.19141,12.55469 -7.97657,25.32812 -11.34375,38.29687 -0.60157,0.84375 -0.32422,2.05469 0.60937,2.71875 6.97656,4.91407 14.13672,9.58985 21.41016,14.04688 0.98047,0.59765 2.20703,0.35547 2.73437,-0.52735 10.54688,-8.23828 20.76172,-16.82421 30.59766,-25.67187 9.39844,5.19141 19.02734,9.97266 28.85547,14.29297 9.66797,4.24219 19.52343,8.05469 29.52343,11.40625 0.10938,13.25781 0.70313,26.54687 1.75391,39.91797 -0.29297,0.98437 0.36328,2.04687 1.46094,2.36718 8.21094,2.37891 16.50781,4.46485 24.84765,6.30469 1.11719,0.23828 2.20704,-0.39062 2.41016,-1.39453 7.28516,-11.23437 14.13281,-22.69141 20.54688,-34.26953 10.57031,1.85937 21.23437,3.21875 31.9375,4.08594 10.51562,0.86328 21.0664,1.26172 31.62109,1.16797 4.40234,12.5039 9.25391,24.91015 14.5625,37.20312 0.0469,1.02734 1.00781,1.81641 2.15234,1.77344 8.51563,-0.40625 17.01172,-1.11719 25.50391,-2.06641 1.13281,-0.13281 1.95703,-1.07422 1.82812,-2.08984 3.27344,-12.99219 6.06641,-26.03516 8.39063,-39.0625 10.61328,-1.66406 21.14062,-3.8125 31.55859,-6.44922 10.21875,-2.58594 20.34375,-5.625 30.29688,-9.12891 8.21875,10.3711 16.85547,20.53125 25.88672,30.4336 0.3789,0.96093 1.54687,1.39453 2.60547,0.96484 7.9414,-3.16016 15.75781,-6.60547 23.47656,-10.28516 1.03906,-0.49218 1.5039,-1.66015 1.05469,-2.58203 -1.14844,-13.34375 -2.76954,-26.58203 -4.82032,-39.66406 9.48047,-5.03125 18.73828,-10.50391 27.71875,-16.39062 8.82032,-5.77735 17.39063,-11.95313 25.66407,-18.50391 11.15625,7.14844 22.61328,13.92578 34.36328,20.35937 0.66797,0.78907 1.91015,0.82032 2.77734,0.0742 6.46875,-5.57422 12.75391,-11.35156 18.84375,-17.32812 0.80469,-0.8086 0.87891,-2.04297 0.15625,-2.78125 -5.42187,-12.25 -11.22266,-24.22656 -17.40625,-35.95703 7.34375,-7.83985 14.32422,-16 20.92969,-24.47657 6.48047,-8.32421 12.59765,-16.93359 18.3164,-25.80859 12.85157,3.14844 25.89844,5.87891 39.08985,8.14453 0.88672,0.53516 2.07812,0.16797 2.65234,-0.83203 4.32813,-7.35547 8.40625,-14.86719 12.23438,-22.51172 0.52734,-1.01562 0.18359,-2.22656 -0.7461,-2.67969 -9.08984,-9.83984 -18.47656,-19.30468 -28.11718,-28.375 4.42187,-9.80078 8.35937,-19.80078 11.84765,-29.95703 3.41797,-9.99218 6.40235,-20.13281 8.91406,-30.38281 13.17188,-1.21875 26.38672,-2.90625 39.61719,-5.06641 1.00781,0.20704 2.01172,-0.53125 2.22656,-1.65625 1.6875,-8.3789 3.09375,-16.8125 4.21094,-25.27734 0.15235,-1.13672 -0.55469,-2.17187 -1.57031,-2.29297"
      fill-rule="nonzero"
      id="path2"/>
   <path
      d="m 690.06641,502.31641 c -10.6836,31.22656 -26.66407,60.65625 -46.9961,86.73046 -20.32422,26.08985 -44.98047,48.81641 -72.63281,66.91407 -27.63281,18.12109 -58.25781,31.57422 -90.25,39.64062 -31.96875,8.10547 -65.41406,10.79688 -98.42188,8.09766 -32.96093,-2.67188 -65.35546,-10.86719 -95.57421,-24.14453 -30.22657,-13.26953 -58.2461,-31.64453 -82.5625,-54.05078 -24.33204,-22.41016 -44.94141,-48.84375 -60.67579,-77.89454 -15.7539,-29.03125 -26.60156,-60.66406 -31.99218,-93.25 -5.38281,-32.5664 -5.38281,-66.2539 0,-98.8164 5.39062,-32.58594 16.23828,-64.21875 31.99218,-93.25 15.73438,-29.05078 36.34375,-55.48438 60.67579,-77.88672 24.3164,-22.42188 52.33593,-40.79297 82.5625,-54.05859 30.21875,-13.27735 62.61328,-21.47266 95.57421,-24.14453 33.00782,-2.69922 66.45313,0 98.42188,8.09765 31.99219,8.06641 62.61719,21.51953 90.25,39.64063 27.65234,18.09765 52.30859,40.82421 72.63281,66.91015 20.33203,26.08594 36.3125,55.50781 46.9961,86.73047 10.73437,31.22656 16.16406,64.21094 16.15234,97.36719 0.0117,33.16015 -5.41797,66.14453 -16.15234,97.36719 z m -37.33204,-289 c -21.14062,-27.14844 -46.80468,-50.78516 -75.57812,-69.62891 -28.76953,-18.86328 -60.65234,-32.875 -93.97266,-41.26953 -33.29297,-8.441408 -68.08593,-11.238282 -102.41406,-8.429689 -34.30078,2.769531 -68.04687,11.308599 -99.51562,25.144529 -31.46485,13.8086 -60.6211,32.92578 -85.92579,56.2461 -25.3164,23.32031 -46.76171,50.83593 -63.14843,81.0625 -16.40235,30.23828 -27.69531,63.17578 -33.308596,97.08984 -5.609375,33.91797 -5.609375,68.91406 0,102.82031 5.613286,33.9336 16.906246,66.875 33.308596,97.09766 16.38672,30.24609 37.83203,57.76172 63.14843,81.0664 25.30469,23.32813 54.46094,42.44532 85.92579,56.26172 31.46875,13.82813 65.21484,22.36719 99.51562,25.13672 34.32813,2.8086 69.12109,0.008 102.41406,-8.42578 33.32032,-8.39844 65.20313,-22.41016 93.97266,-41.27344 28.77344,-18.84375 54.4375,-42.48437 75.57812,-69.6289 21.16016,-27.14063 37.78907,-57.77735 48.92188,-90.28907 11.18359,-32.51171 16.82031,-66.86718 16.82031,-101.34765 0,-34.47656 -5.63672,-68.82813 -16.82031,-101.34375 -11.13281,-32.51172 -27.76172,-63.14453 -48.92188,-90.28906"
      fill-rule="nonzero"
      id="path3"/>
</svg>
